<?xml version="1.0" encoding="iso-8859-1"?>
<!-- Generator: Adobe Illustrator 18.0.0, SVG Export Plug-In . SVG Version: 6.00 Build 0)  -->
<!DOCTYPE svg PUBLIC "-//W3C//DTD SVG 1.1//EN" "http://www.w3.org/Graphics/SVG/1.1/DTD/svg11.dtd">
<svg version="1.1" id="Capa_1" xmlns="http://www.w3.org/2000/svg" xmlns:xlink="http://www.w3.org/1999/xlink" x="0px" y="0px"
	 viewBox="0 0 248.186 248.186" style="enable-background:new 0 0 248.186 248.186;" xml:space="preserve">
<path d="M164.76,43.176h59.789v-20H164.76c-29.268,0-53.692,21.069-58.942,48.834H0v153h248.186v-153H126.357
	C131.203,55.372,146.579,43.176,164.76,43.176z M84.76,124.51h18.666v16H84.76V124.51z M84.76,154.51h18.666v16H84.76V154.51z
	 M24.76,92.51h50.666v16H24.76V92.51z M54.76,140.51v-16h18.666v16H54.76z M73.426,154.51v16H54.76v-16H73.426z M24.76,124.51
	h18.666v16H24.76V124.51z M24.76,154.51h18.666v16H24.76V154.51z M163.426,200.576H24.76v-16h138.666V200.576z M133.426,154.51v16
	H114.76v-16H133.426z M114.76,140.51v-16h18.666v16H114.76z M163.426,170.51H144.76v-16h18.666V170.51z M163.426,140.51H144.76v-16
	h18.666V140.51z M193.426,170.51H174.76v-16h18.666V170.51z M193.426,140.51H174.76v-16h18.666V140.51z M224.426,170.51H205.76
	v-45.996h18.666V170.51z M223.426,92.51v16H104.76v-16H223.426z"/>
<g>
</g>
<g>
</g>
<g>
</g>
<g>
</g>
<g>
</g>
<g>
</g>
<g>
</g>
<g>
</g>
<g>
</g>
<g>
</g>
<g>
</g>
<g>
</g>
<g>
</g>
<g>
</g>
<g>
</g>
</svg>
