<?xml version="1.0" encoding="iso-8859-1"?>
<!-- Generator: Adobe Illustrator 19.0.0, SVG Export Plug-In . SVG Version: 6.00 Build 0)  -->
<svg version="1.1" id="Capa_1" xmlns="http://www.w3.org/2000/svg" xmlns:xlink="http://www.w3.org/1999/xlink" x="0px" y="0px"
	 viewBox="0 0 229.617 229.617" style="enable-background:new 0 0 229.617 229.617;" xml:space="preserve">
<path d="M195.658,53.662c-18.748,0-34,15.252-34,34c0,4.957,0.908,9.664,2.823,13.915l-43.49,52.065v44.646h-33v-53h14.159
	l2.678-16.07l47.149-64.38l-20.29-51.551H116.9c-3.58-4.249-8.932-6.958-14.909-6.958c-10.752,0-19.5,8.748-19.5,19.5
	s8.748,19.5,19.5,19.5c5.165,0,9.854-2.032,13.346-5.322l8.334,21.17l-35.965,49.109H64.393L28.316,61.168l8.329-21.161
	c3.492,3.289,8.182,5.322,13.346,5.322c10.752,0,19.5-8.748,19.5-19.5s-8.748-19.5-19.5-19.5c-5.978,0-11.329,2.709-14.909,6.958
	H20.295L0,64.848l47.117,64.151l2.715,16.289h13.159v78h83v-60.604l36.465-43.623c4.017,1.674,8.503,2.602,13.119,2.602
	c18.748,0,34.042-15.252,34.042-34S214.406,53.662,195.658,53.662z M195.658,96.162c-4.694,0-8.5-3.806-8.5-8.5
	c0-4.694,3.806-8.5,8.5-8.5s8.5,3.806,8.5,8.5C204.158,92.357,200.352,96.162,195.658,96.162z"/>
<g>
</g>
<g>
</g>
<g>
</g>
<g>
</g>
<g>
</g>
<g>
</g>
<g>
</g>
<g>
</g>
<g>
</g>
<g>
</g>
<g>
</g>
<g>
</g>
<g>
</g>
<g>
</g>
<g>
</g>
</svg>
